REM DIRINDEX 1\2\4,1\2\5,1\2\6,1\3\7,1\3\8,1\3\9,1\3\10
REM DIRNAME folder01,folder02,folder03,folder04,folder05,folder06,folder07,folder08,folder09,folder10
TITLE ""
FILE "b_36.mp3" MP3
  TRACK 01 AUDIO
    TITLE "0:"
    INDEX 01 00:00:00
  TRACK 02 AUDIO
    TITLE "10:cjc058_3200"
    INDEX 01 00:00:11
  TRACK 03 AUDIO
    TITLE "0:"
    INDEX 01 00:05:57
  TRACK 04 AUDIO
    TITLE "10:cjc058_3201"
    INDEX 01 00:06:26
  TRACK 05 AUDIO
    TITLE "0:"
    INDEX 01 00:09:16
  TRACK 06 AUDIO
    TITLE "7:cjc058_3202"
    INDEX 01 00:09:63
  TRACK 07 AUDIO
    TITLE "0:"
    INDEX 01 00:11:23
  TRACK 08 AUDIO
    TITLE "8:cjc058_3203"
    INDEX 01 00:11:54
  TRACK 09 AUDIO
    TITLE "0:"
    INDEX 01 00:13:00
  TRACK 10 AUDIO
    TITLE "9:cjc058_3204"
    INDEX 01 00:13:41
  TRACK 11 AUDIO
    TITLE "0:"
    INDEX 01 00:17:08
  TRACK 12 AUDIO
    TITLE "7:cjc058_3205"
    INDEX 01 00:18:11
  TRACK 13 AUDIO
    TITLE "0:"
    INDEX 01 00:19:20
  TRACK 14 AUDIO
    TITLE "8:cjc058_3206"
    INDEX 01 00:19:52
  TRACK 15 AUDIO
    TITLE "0:"
    INDEX 01 00:20:71
  TRACK 16 AUDIO
    TITLE "9:cjc058_3207"
    INDEX 01 00:21:39
  TRACK 17 AUDIO
    TITLE "0:"
    INDEX 01 00:23:61
  TRACK 18 AUDIO
    TITLE "7:cjc058_3208"
    INDEX 01 00:24:71
  TRACK 19 AUDIO
    TITLE "0:"
    INDEX 01 00:26:50
  TRACK 20 AUDIO
    TITLE "8:cjc058_3209"
    INDEX 01 00:27:06
  TRACK 21 AUDIO
    TITLE "0:"
    INDEX 01 00:29:13
  TRACK 22 AUDIO
    TITLE "9:cjc058_3210"
    INDEX 01 00:29:58
  TRACK 23 AUDIO
    TITLE "0:"
    INDEX 01 00:33:50
  TRACK 24 AUDIO
    TITLE "7:cjc058_3211"
    INDEX 01 00:34:53
  TRACK 25 AUDIO
    TITLE "0:"
    INDEX 01 00:35:74
  TRACK 26 AUDIO
    TITLE "8:cjc058_3212"
    INDEX 01 00:36:33
  TRACK 27 AUDIO
    TITLE "0:"
    INDEX 01 00:37:59
  TRACK 28 AUDIO
    TITLE "9:cjc058_3213"
    INDEX 01 00:38:28
  TRACK 29 AUDIO
    TITLE "0:"
    INDEX 01 00:41:71
  TRACK 30 AUDIO
    TITLE "7:cjc058_3214"
    INDEX 01 00:43:01
  TRACK 31 AUDIO
    TITLE "0:"
    INDEX 01 00:44:40
  TRACK 32 AUDIO
    TITLE "8:cjc058_3215"
    INDEX 01 00:44:73
  TRACK 33 AUDIO
    TITLE "0:"
    INDEX 01 00:47:34
  TRACK 34 AUDIO
    TITLE "9:cjc058_3216"
    INDEX 01 00:48:04
  TRACK 35 AUDIO
    TITLE "0:"
    INDEX 01 00:52:55
  TRACK 36 AUDIO
    TITLE "7:cjc058_3217"
    INDEX 01 00:53:62
  TRACK 37 AUDIO
    TITLE "0:"
    INDEX 01 00:55:12
  TRACK 38 AUDIO
    TITLE "8:cjc058_3218"
    INDEX 01 00:55:46
  TRACK 39 AUDIO
    TITLE "0:"
    INDEX 01 00:58:56
  TRACK 40 AUDIO
    TITLE "9:cjc058_3219"
    INDEX 01 00:59:28
  TRACK 41 AUDIO
    TITLE "0:"
    INDEX 01 01:04:62
  TRACK 42 AUDIO
    TITLE "7:cjc058_3220"
    INDEX 01 01:05:71
  TRACK 43 AUDIO
    TITLE "0:"
    INDEX 01 01:07:41
  TRACK 44 AUDIO
    TITLE "8:cjc058_3221"
    INDEX 01 01:07:74
  TRACK 45 AUDIO
    TITLE "0:"
    INDEX 01 01:09:28
  TRACK 46 AUDIO
    TITLE "9:cjc058_3222"
    INDEX 01 01:09:73
  TRACK 47 AUDIO
    TITLE "0:"
    INDEX 01 01:15:23
  TRACK 48 AUDIO
    TITLE "7:cjc058_3223"
    INDEX 01 01:16:30
  TRACK 49 AUDIO
    TITLE "0:"
    INDEX 01 01:17:71
  TRACK 50 AUDIO
    TITLE "8:cjc058_3224"
    INDEX 01 01:18:29
  TRACK 51 AUDIO
    TITLE "0:"
    INDEX 01 01:19:62
  TRACK 52 AUDIO
    TITLE "9:cjc058_3225"
    INDEX 01 01:20:34
  TRACK 53 AUDIO
    TITLE "0:"
    INDEX 01 01:26:05
  TRACK 54 AUDIO
    TITLE "7:cjc058_3226"
    INDEX 01 01:27:14
  TRACK 55 AUDIO
    TITLE "0:"
    INDEX 01 01:28:51
  TRACK 56 AUDIO
    TITLE "8:cjc058_3227"
    INDEX 01 01:29:09
  TRACK 57 AUDIO
    TITLE "0:"
    INDEX 01 01:31:45
  TRACK 58 AUDIO
    TITLE "9:cjc058_3228"
    INDEX 01 01:32:15
  TRACK 59 AUDIO
    TITLE "0:"
    INDEX 01 01:37:62
  TRACK 60 AUDIO
    TITLE "7:cjc058_3229"
    INDEX 01 01:38:73
  TRACK 61 AUDIO
    TITLE "0:"
    INDEX 01 01:40:38
  TRACK 62 AUDIO
    TITLE "8:cjc058_3230"
    INDEX 01 01:40:72
  TRACK 63 AUDIO
    TITLE "0:"
    INDEX 01 01:43:21
  TRACK 64 AUDIO
    TITLE "9:cjc058_3231"
    INDEX 01 01:43:66
  TRACK 65 AUDIO
    TITLE "0:"
    INDEX 01 01:48:63
  TRACK 66 AUDIO
    TITLE "7:cjc058_3232"
    INDEX 01 01:49:71
  TRACK 67 AUDIO
    TITLE "0:"
    INDEX 01 01:51:34
  TRACK 68 AUDIO
    TITLE "8:cjc058_3233"
    INDEX 01 01:51:68
  TRACK 69 AUDIO
    TITLE "0:"
    INDEX 01 01:53:27
  TRACK 70 AUDIO
    TITLE "9:cjc058_3234"
    INDEX 01 01:53:72
  TRACK 71 AUDIO
    TITLE "0:"
    INDEX 01 01:57:70
  TRACK 72 AUDIO
    TITLE "7:cjc058_3235"
    INDEX 01 01:59:04
  TRACK 73 AUDIO
    TITLE "0:"
    INDEX 01 02:00:53
  TRACK 74 AUDIO
    TITLE "8:cjc058_3236"
    INDEX 01 02:01:11
  TRACK 75 AUDIO
    TITLE "0:"
    INDEX 01 02:02:52
  TRACK 76 AUDIO
    TITLE "9:cjc058_3237"
    INDEX 01 02:03:24
  TRACK 77 AUDIO
    TITLE "0:"
    INDEX 01 02:07:65
  TRACK 78 AUDIO
    TITLE "7:cjc058_3238"
    INDEX 01 02:08:70
  TRACK 79 AUDIO
    TITLE "0:"
    INDEX 01 02:10:42
  TRACK 80 AUDIO
    TITLE "8:cjc058_3239"
    INDEX 01 02:11:00
  TRACK 81 AUDIO
    TITLE "0:"
    INDEX 01 02:12:44
  TRACK 82 AUDIO
    TITLE "9:cjc058_3240"
    INDEX 01 02:13:12
  TRACK 83 AUDIO
    TITLE "0:"
    INDEX 01 02:19:15
  TRACK 84 AUDIO
    TITLE "7:cjc058_3241"
    INDEX 01 02:20:20
  TRACK 85 AUDIO
    TITLE "0:"
    INDEX 01 02:21:65
  TRACK 86 AUDIO
    TITLE "8:cjc058_3242"
    INDEX 01 02:22:25
  TRACK 87 AUDIO
    TITLE "0:"
    INDEX 01 02:24:02
  TRACK 88 AUDIO
    TITLE "9:cjc058_3243"
    INDEX 01 02:24:47
  TRACK 89 AUDIO
    TITLE "0:"
    INDEX 01 02:30:34
  TRACK 90 AUDIO
    TITLE "7:cjc058_3244"
    INDEX 01 02:31:42
  TRACK 91 AUDIO
    TITLE "0:"
    INDEX 01 02:33:01
  TRACK 92 AUDIO
    TITLE "8:cjc058_3245"
    INDEX 01 02:33:35
  TRACK 93 AUDIO
    TITLE "0:"
    INDEX 01 02:34:66
  TRACK 94 AUDIO
    TITLE "9:cjc058_3246"
    INDEX 01 02:35:32
  TRACK 95 AUDIO
    TITLE "0:"
    INDEX 01 02:39:67
  TRACK 96 AUDIO
    TITLE "7:cjc058_3247"
    INDEX 01 02:41:01
  TRACK 97 AUDIO
    TITLE "0:"
    INDEX 01 02:42:28
  TRACK 98 AUDIO
    TITLE "8:cjc058_3248"
    INDEX 01 02:42:63
  TRACK 99 AUDIO
    TITLE "0:"
    INDEX 01 02:44:36
  TRACK 100 AUDIO
    TITLE "9:cjc058_3249"
    INDEX 01 02:45:07
  TRACK 101 AUDIO
    TITLE "0:"
    INDEX 01 02:49:61
  TRACK 102 AUDIO
    TITLE "7:cjc058_3250"
    INDEX 01 02:50:68
  TRACK 103 AUDIO
    TITLE "0:"
    INDEX 01 02:52:36
  TRACK 104 AUDIO
    TITLE "8:cjc058_3251"
    INDEX 01 02:52:69
  TRACK 105 AUDIO
    TITLE "0:"
    INDEX 01 02:55:28
  TRACK 106 AUDIO
    TITLE "9:cjc058_3252"
    INDEX 01 02:55:74
  TRACK 107 AUDIO
    TITLE "0:"
    INDEX 01 03:01:04
  TRACK 108 AUDIO
    TITLE "7:cjc058_3253"
    INDEX 01 03:02:09
  TRACK 109 AUDIO
    TITLE "0:"
    INDEX 01 03:03:63
  TRACK 110 AUDIO
    TITLE "8:cjc058_3254"
    INDEX 01 03:04:20
  TRACK 111 AUDIO
    TITLE "0:"
    INDEX 01 03:05:37
  TRACK 112 AUDIO
    TITLE "9:cjc058_3255"
    INDEX 01 03:06:09
  TRACK 113 AUDIO
    TITLE "0:"
    INDEX 01 03:12:17
  TRACK 114 AUDIO
    TITLE "7:cjc058_3256"
    INDEX 01 03:13:26
  TRACK 115 AUDIO
    TITLE "0:"
    INDEX 01 03:15:15
  TRACK 116 AUDIO
    TITLE "8:cjc058_3257"
    INDEX 01 03:15:49
  TRACK 117 AUDIO
    TITLE "0:"
    INDEX 01 03:16:70
  TRACK 118 AUDIO
    TITLE "9:cjc058_3258"
    INDEX 01 03:17:40
  TRACK 119 AUDIO
    TITLE "0:"
    INDEX 01 03:23:23
  TRACK 120 AUDIO
    TITLE "7:cjc058_3259"
    INDEX 01 03:24:28
  TRACK 121 AUDIO
    TITLE "0:"
    INDEX 01 03:25:59
  TRACK 122 AUDIO
    TITLE "8:cjc058_3260"
    INDEX 01 03:26:17
  TRACK 123 AUDIO
    TITLE "0:"
    INDEX 01 03:27:36
  TRACK 124 AUDIO
    TITLE "9:cjc058_3261"
    INDEX 01 03:28:04
  TRACK 125 AUDIO
    TITLE "0:"
    INDEX 01 03:32:20
  TRACK 126 AUDIO
    TITLE "7:cjc058_3262"
    INDEX 01 03:33:25
  TRACK 127 AUDIO
    TITLE "0:"
    INDEX 01 03:34:44
  TRACK 128 AUDIO
    TITLE "8:cjc058_3263"
    INDEX 01 03:35:03
  TRACK 129 AUDIO
    TITLE "0:"
    INDEX 01 03:37:39
  TRACK 130 AUDIO
    TITLE "9:cjc058_3264"
    INDEX 01 03:38:03
  TRACK 131 AUDIO
    TITLE "0:"
    INDEX 01 03:43:02
  TRACK 132 AUDIO
    TITLE "7:cjc058_3265"
    INDEX 01 03:44:11
  TRACK 133 AUDIO
    TITLE "0:"
    INDEX 01 03:45:44
  TRACK 134 AUDIO
    TITLE "8:cjc058_3266"
    INDEX 01 03:46:02
  TRACK 135 AUDIO
    TITLE "0:"
    INDEX 01 03:48:48
  TRACK 136 AUDIO
    TITLE "9:cjc058_3267"
    INDEX 01 03:49:18
  TRACK 137 AUDIO
    TITLE "0:"
    INDEX 01 03:54:68
  TRACK 138 AUDIO
    TITLE "7:cjc058_3268"
    INDEX 01 03:56:03
  TRACK 139 AUDIO
    TITLE "0:"
    INDEX 01 03:57:37
  TRACK 140 AUDIO
    TITLE "8:cjc058_3269"
    INDEX 01 03:57:71
  TRACK 141 AUDIO
    TITLE "0:"
    INDEX 01 03:59:74
  TRACK 142 AUDIO
    TITLE "9:cjc058_3270"
    INDEX 01 04:00:40
  TRACK 143 AUDIO
    TITLE "0:"
    INDEX 01 04:04:71
  TRACK 144 AUDIO
    TITLE "7:cjc058_3271"
    INDEX 01 04:06:03
  TRACK 145 AUDIO
    TITLE "0:"
    INDEX 01 04:07:38
  TRACK 146 AUDIO
    TITLE "8:cjc058_3272"
    INDEX 01 04:07:73
  TRACK 147 AUDIO
    TITLE "0:"
    INDEX 01 04:09:19
  TRACK 148 AUDIO
    TITLE "9:cjc058_3273"
    INDEX 01 04:09:66
  TRACK 149 AUDIO
    TITLE "0:"
    INDEX 01 04:13:58
  TRACK 150 AUDIO
    TITLE "7:cjc058_3274"
    INDEX 01 04:14:65
  TRACK 151 AUDIO
    TITLE "0:"
    INDEX 01 04:16:47
  TRACK 152 AUDIO
    TITLE "8:cjc058_3275"
    INDEX 01 04:17:03
  TRACK 153 AUDIO
    TITLE "0:"
    INDEX 01 04:19:68
  TRACK 154 AUDIO
    TITLE "9:cjc058_3276"
    INDEX 01 04:20:36
  TRACK 155 AUDIO
    TITLE "0:"
    INDEX 01 04:24:46
  TRACK 156 AUDIO
    TITLE "7:cjc058_3277"
    INDEX 01 04:25:55
  TRACK 157 AUDIO
    TITLE "0:"
    INDEX 01 04:27:13
  TRACK 158 AUDIO
    TITLE "8:cjc058_3278"
    INDEX 01 04:27:46
  TRACK 159 AUDIO
    TITLE "0:"
    INDEX 01 04:28:73
  TRACK 160 AUDIO
    TITLE "9:cjc058_3279"
    INDEX 01 04:29:41
  TRACK 161 AUDIO
    TITLE "0:"
    INDEX 01 04:33:72
  TRACK 162 AUDIO
    TITLE "7:cjc058_3280"
    INDEX 01 04:35:03
  TRACK 163 AUDIO
    TITLE "0:"
    INDEX 01 04:36:41
  TRACK 164 AUDIO
    TITLE "8:cjc058_3281"
    INDEX 01 04:37:00
  TRACK 165 AUDIO
    TITLE "0:"
    INDEX 01 04:38:25
  TRACK 166 AUDIO
    TITLE "9:cjc058_3282"
    INDEX 01 04:38:70
  TRACK 167 AUDIO
    TITLE "0:"
    INDEX 01 04:41:60
  TRACK 168 AUDIO
    TITLE "7:cjc058_3283"
    INDEX 01 04:42:67
  TRACK 169 AUDIO
    TITLE "0:"
    INDEX 01 04:44:41
  TRACK 170 AUDIO
    TITLE "8:cjc058_3284"
    INDEX 01 04:44:74
  TRACK 171 AUDIO
    TITLE "0:"
    INDEX 01 04:47:69
  TRACK 172 AUDIO
    TITLE "9:cjc058_3285"
    INDEX 01 04:48:35
  TRACK 173 AUDIO
    TITLE "0:"
    INDEX 01 04:54:59
  TRACK 174 AUDIO
    TITLE "7:cjc058_3286"
    INDEX 01 04:55:66
  TRACK 175 AUDIO
    TITLE "0:"
    INDEX 01 04:57:49
  TRACK 176 AUDIO
    TITLE "8:cjc058_3287"
    INDEX 01 04:58:08
  TRACK 177 AUDIO
    TITLE "0:"
    INDEX 01 04:59:62
  TRACK 178 AUDIO
    TITLE "9:cjc058_3288"
    INDEX 01 05:00:34
  TRACK 179 AUDIO
    TITLE "0:"
    INDEX 01 05:03:42
  TRACK 180 AUDIO
    TITLE "7:cjc058_3289"
    INDEX 01 05:04:49
  TRACK 181 AUDIO
    TITLE "0:"
    INDEX 01 05:05:61
  TRACK 182 AUDIO
    TITLE "8:cjc058_3290"
    INDEX 01 05:06:19
  TRACK 183 AUDIO
    TITLE "0:"
    INDEX 01 05:08:14
  TRACK 184 AUDIO
    TITLE "9:cjc058_3291"
    INDEX 01 05:08:61
  TRACK 185 AUDIO
    TITLE "0:"
    INDEX 01 05:13:68
  TRACK 186 AUDIO
    TITLE "7:cjc058_3292"
    INDEX 01 05:14:73
  TRACK 187 AUDIO
    TITLE "0:"
    INDEX 01 05:16:41
  TRACK 188 AUDIO
    TITLE "8:cjc058_3293"
    INDEX 01 05:16:74
  TRACK 189 AUDIO
    TITLE "0:"
    INDEX 01 05:21:22
  TRACK 190 AUDIO
    TITLE "9:cjc058_3294"
    INDEX 01 05:21:68
  TRACK 191 AUDIO
    TITLE "0:"
    INDEX 01 05:25:03
  TRACK 192 AUDIO
    TITLE "7:cjc058_3295"
    INDEX 01 05:26:06
  TRACK 193 AUDIO
    TITLE "0:"
    INDEX 01 05:27:21
  TRACK 194 AUDIO
    TITLE "8:cjc058_3296"
    INDEX 01 05:27:54
  TRACK 195 AUDIO
    TITLE "0:"
    INDEX 01 05:30:02
  TRACK 196 AUDIO
    TITLE "9:cjc058_3297"
    INDEX 01 05:30:49
  TRACK 197 AUDIO
    TITLE "0:"
    INDEX 01 05:34:58
  TRACK 198 AUDIO
    TITLE "7:cjc058_3298"
    INDEX 01 05:35:64
  TRACK 199 AUDIO
    TITLE "0:"
    INDEX 01 05:37:53
  TRACK 200 AUDIO
    TITLE "8:cjc058_3299"
    INDEX 01 05:38:11
  TRACK 201 AUDIO
    TITLE "0:"
    INDEX 01 05:39:58
  TRACK 202 AUDIO
    TITLE "9:cjc058_3300"
    INDEX 01 05:40:24
  TRACK 203 AUDIO
    TITLE "0:"
    INDEX 01 05:45:74
  TRACK 204 AUDIO
    TITLE "7:cjc058_3301"
    INDEX 01 05:47:04
  TRACK 205 AUDIO
    TITLE "0:"
    INDEX 01 05:48:47
  TRACK 206 AUDIO
    TITLE "8:cjc058_3302"
    INDEX 01 05:49:05
  TRACK 207 AUDIO
    TITLE "0:"
    INDEX 01 05:52:64
  TRACK 208 AUDIO
    TITLE "9:cjc058_3303"
    INDEX 01 05:53:34
  TRACK 209 AUDIO
    TITLE "0:"
    INDEX 01 06:00:52
  TRACK 210 AUDIO
    TITLE "7:cjc058_3304"
    INDEX 01 06:01:59
  TRACK 211 AUDIO
    TITLE "0:"
    INDEX 01 06:03:33
  TRACK 212 AUDIO
    TITLE "8:cjc058_3305"
    INDEX 01 06:03:66
  TRACK 213 AUDIO
    TITLE "0:"
    INDEX 01 06:06:21
  TRACK 214 AUDIO
    TITLE "9:cjc058_3306"
    INDEX 01 06:06:66
  TRACK 215 AUDIO
    TITLE "0:"
    INDEX 01 06:14:11
  TRACK 216 AUDIO
    TITLE "7:cjc058_3307"
    INDEX 01 06:15:16
  TRACK 217 AUDIO
    TITLE "0:"
    INDEX 01 06:16:43
  TRACK 218 AUDIO
    TITLE "8:cjc058_3308"
    INDEX 01 06:17:03
  TRACK 219 AUDIO
    TITLE "0:"
    INDEX 01 06:19:47
  TRACK 220 AUDIO
    TITLE "9:cjc058_3309"
    INDEX 01 06:20:17
  TRACK 221 AUDIO
    TITLE "0:"
    INDEX 01 06:25:22
  TRACK 222 AUDIO
    TITLE "7:cjc058_3310"
    INDEX 01 06:26:26
  TRACK 223 AUDIO
    TITLE "0:"
    INDEX 01 06:27:59
  TRACK 224 AUDIO
    TITLE "8:cjc058_3311"
    INDEX 01 06:28:17
  TRACK 225 AUDIO
    TITLE "0:"
    INDEX 01 06:30:67
  TRACK 226 AUDIO
    TITLE "9:cjc058_3312"
    INDEX 01 06:31:37
  TRACK 227 AUDIO
    TITLE "0:"
    INDEX 01 06:36:09
